# xmcd
# 
# Track frame offsets:
#     150
#     15242
#     35132
#     54877
#     74187
#     86852
#     101630
#     117022
#     138025
#     156745
#     173107
# 
# Disc length: 2621
# 
# Revision: 4
# Processed by: cddbd v1.5.2PL0 Copyright (c) Steve Scherf et al.
# Submitted via: fre:ac v1.0.31
# 
DISCID=940a3b0b
DTITLE=B. B. King - Guess Who
DYEAR=1972
DGENRE=Blues
TTITLE0=Summer in the city
TTITLE1=Just can't please you
TTITLE2=Any other way
TTITLE3=You don't know nothin' about love
TTITLE4=Found what I need
TTITLE5=Neighbourhood affair
TTITLE6=It takes a young girl
TTITLE7=Better lovin' man
TTITLE8=Gues who
TTITLE9=Shouldn't have left me
TTITLE10=Five long years
EXTD=YEAR: 1972
EXTT0=
EXTT1=
EXTT2=
EXTT3=
EXTT4=
EXTT5=
EXTT6=
EXTT7=
EXTT8=
EXTT9=
EXTT10=
PLAYORDER=
